<?xml version="1.0" encoding="utf-8"?>
<svg version="1.1" id="Слой_1" xmlns="http://www.w3.org/2000/svg" xmlns:xlink="http://www.w3.org/1999/xlink" x="0px" y="0px"
	 viewBox="0 0 33 32" style="enable-background:new 0 0 33 32;" xml:space="preserve">
<style type="text/css">
	.st0{fill:#F16D7F;}
	.st1{fill:#FFFFFF;}
</style>
<rect x="0.3" y="0" class="st0" width="32.7" height="32"/>
<path class="st1" d="M8.6,12h3.6v10.9H8.6V12z M14.1,12h3.6v1.3c1.2-0.7,2.5-1.3,3.6-1.3c2.4,0,3,2.4,3,2.4v8.5h-3.6v-7.3
	c-0.5-1.4-1.7-1.4-3-0.1v7.4h-3.6V12z M10.4,7.1c1,0,1.8,0.8,1.8,1.8c0,1-0.8,1.8-1.8,1.8c-1,0-1.8-0.8-1.8-1.8
	C8.6,7.9,9.4,7.1,10.4,7.1z"/>
</svg>
